# xmcd
#
# Track frame offsets:
#	150
#	12118
#	27217
#	43258
#	59889
#	72084
#	91027
#	100340
#	109508
#	120839
#	130802
#	135263
#	145110
#	182667
#
# Disc length: 2860 seconds
#
# Revision: 0
# Processed by: cddbd v1.5.1PL0 Copyright (c) Steve Scherf et al.
# Submitted via: dBpowerAMP V4.0
#
DISCID=b30b2a0e
DTITLE=Various Artist - Radosnie byc dzieckiem Bozym
DYEAR=1900
DGENRE=Religious
TTITLE0=Hymn Podworkowych Kolek rozancowych
TTITLE1=Apostolowie radosci - Promyczki
TTITLE2=Swiat - Ychtis
TTITLE3=Moje Miasto Wadowice - Opoka
TTITLE4=Boza radosc - Maly Chor Wielkich Serc
TTITLE5=Maryja Fatimska i Rozancowa - Opoka
TTITLE6=Gdyby Pan Jezus przyszedl dzisiaj - Promyczki
TTITLE7=Arka - Ychtis i Jacek Wojcicki
TTITLE8=Oto Maly Chorek - Maly Chor Wielkich Serc
TTITLE9=To nasze swieto - Promyczki
TTITLE10=Ty jestes Piotr, czyli skala - Opoka
TTITLE11=Kocham Cie, Cie - Maly Chor Wielkich Serc
TTITLE12=Bog bogaty w milosierdzie - Opoka
TTITLE13=DATA
EXTD=
EXTT0=
EXTT1=
EXTT2=
EXTT3=
EXTT4=
EXTT5=
EXTT6=
EXTT7=
EXTT8=
EXTT9=
EXTT10=
EXTT11=
EXTT12=
EXTT13=
PLAYORDER=
